<svg width="32" height="32" viewBox="0 0 32 32" fill="none" xmlns="http://www.w3.org/2000/svg">
<rect width="32" height="32" rx="4" fill="#111213"/>
<path d="M11.6263 17.3464C13.1683 18.5183 13.4972 19.5463 14.7719 21.0471" stroke="#16A34A" stroke-width="1.09657" stroke-linecap="round" stroke-linejoin="round"/>
<path d="M11.0024 24.0885C12.6337 23.3705 18.2875 25.3236 21.4947 25.5909" stroke="#16A34A" stroke-width="1.09657" stroke-linecap="round" stroke-linejoin="round"/>
<path d="M21.3303 22.4658C19.2744 22.3219 18.8221 20.2043 17.2184 18.8165" stroke="#16A34A" stroke-width="1.00518" stroke-linecap="round" stroke-linejoin="round"/>
<path d="M14.9705 18.8167C14.9705 18.8167 13.8182 18.8642 13.2094 19.2998C12.6005 19.7354 11.8525 21.0473 11.8525 21.0473" stroke="#16A34A" stroke-width="1.09657" stroke-linecap="round" stroke-linejoin="round"/>
<path d="M19.9116 19.7727C19.9116 19.7727 19.328 20.1389 18.7192 20.5745C18.1104 21.0101 18.2123 21.7567 18.2123 21.7567" stroke="#16A34A" stroke-width="1.00518" stroke-linecap="round" stroke-linejoin="round"/>
<path d="M9.15738 12.6685C0.41784 18.7753 6.2681 28.3982 15.8341 29.5775C29.7034 31.2874 25.0351 19.9966 25.0351 19.9966" stroke="#16A34A" stroke-width="1.09657" stroke-linecap="round" stroke-linejoin="round"/>
<path d="M9.94458 9.1942C18.4399 6.4258 23.4067 10.9584 25.6866 12.2883" stroke="#16A34A" stroke-width="1.09657" stroke-linecap="round"/>
<path d="M18.9554 16.224C20.1949 13.356 23.2004 7.12616 24.9808 6.34448C25.7505 6.95086 25.5687 9.29949 25.7408 11.6913C25.9693 14.8666 26.5368 18.0696 27.125 18.0696" stroke="#16A34A" stroke-width="1.09657" stroke-linecap="round" stroke-linejoin="round"/>
<path d="M13.1202 13.4555C12.532 13.4555 12.0617 10.7685 12.0617 7.48439C11.8895 5.09253 12.1256 2.85247 11.356 2.24609C9.7406 2.84962 8.20117 7.64705 6.6897 11.5577M6.6897 11.5577C6.0621 13.7168 5.88681 15.6947 5.46423 16.9061L6.6897 11.5577Z" stroke="#16A34A" stroke-width="1.09657" stroke-linecap="round" stroke-linejoin="round"/>
</svg>
