<svg width="800" height="800" viewBox="0 0 800 800" fill="none" xmlns="http://www.w3.org/2000/svg">
<g clip-path="url(#clip0_1_2)">
<path d="M160 400L400 599.6V720L-0.00012207 400H160Z" fill="#737373"/>
<path d="M400 599.6L640 400H800L400 720V599.6Z" fill="#737373"/>
<path d="M-0.00012207 400L400 79.9999V200.4L160 400H-0.00012207Z" fill="#A3A3A3"/>
<path d="M400 200.4L640 400H800L400 79.9999V200.4Z" fill="#A3A3A3"/>
<path d="M400 480C444.183 480 480 444.183 480 400C480 355.817 444.183 320 400 320C355.817 320 320 355.817 320 400C320 444.183 355.817 480 400 480Z" fill="#737373"/>
</g>
<defs>
<clipPath id="clip0_1_2">
<rect width="800" height="800" fill="white"/>
</clipPath>
</defs>
</svg>
