<svg width="801" height="800" viewBox="0 0 801 800" fill="none" xmlns="http://www.w3.org/2000/svg">
<g clip-path="url(#clip0_1_18)">
<path d="M374.103 0.215283C372.382 0.371663 366.908 0.918992 361.982 1.30994C248.355 11.5528 141.923 72.8537 74.5134 167.072C36.9767 219.46 12.9689 278.884 3.89756 341.827C0.6913 363.798 0.300293 370.288 0.300293 400.078C0.300293 429.869 0.6913 436.358 3.89756 458.33C25.6375 608.533 132.539 734.731 277.524 781.489C303.487 789.855 330.857 795.563 361.982 799.003C374.103 800.332 426.498 800.332 438.619 799.003C492.343 793.061 537.857 779.768 582.744 756.859C589.626 753.34 590.955 752.402 590.017 751.62C589.391 751.151 560.066 711.821 524.875 664.282L460.906 577.882L380.75 459.268C336.644 394.058 300.359 340.732 300.046 340.732C299.733 340.654 299.421 393.354 299.264 457.704C299.03 570.376 298.951 574.911 297.544 577.569C295.51 581.401 293.946 582.964 290.662 584.685C288.16 585.936 285.97 586.17 274.161 586.17H260.633L257.035 583.903C254.689 582.417 252.969 580.462 251.796 578.195L250.154 574.676L250.31 417.906L250.545 261.057L252.969 258.007C254.22 256.365 256.879 254.254 258.756 253.238C261.962 251.674 263.213 251.518 276.742 251.518C292.695 251.518 295.354 252.143 299.499 256.678C300.672 257.929 344.074 323.296 395.999 402.033C447.925 480.77 518.932 588.281 553.81 641.06L617.153 736.999L620.359 734.887C648.746 716.435 678.775 690.163 702.549 662.796C753.145 604.701 785.755 533.861 796.703 458.33C799.909 436.358 800.3 429.869 800.3 400.078C800.3 370.288 799.909 363.798 796.703 341.827C774.963 191.624 668.062 65.4256 523.076 18.6681C497.505 10.38 470.291 4.67211 439.792 1.23175C432.285 0.449853 380.594 -0.410236 374.103 0.215283ZM537.857 242.135C541.61 244.011 544.66 247.608 545.755 251.361C546.38 253.394 546.537 296.868 546.38 394.84L546.146 535.425L521.356 497.425L496.488 459.424V357.23C496.488 291.16 496.801 254.02 497.27 252.221C498.521 247.843 501.258 244.402 505.012 242.369C508.218 240.727 509.391 240.571 521.669 240.571C533.243 240.571 535.276 240.727 537.857 242.135Z" fill="#737373"/>
</g>
<defs>
<clipPath id="clip0_1_18">
<rect width="800" height="800" fill="white" transform="translate(0.300293)"/>
</clipPath>
</defs>
</svg>
