<svg width="33" height="33" viewBox="0 0 33 33" fill="none"
     xmlns="http://www.w3.org/2000/svg">
    <path d="M16.2443 31.2644C6.11395 30.0155 -0.0814366 19.8249 9.17368 13.3578C13.0128 11.9663 26.7862 15.0027 28.5329 19.7164C28.5329 19.7164 30.9318 33.0752 16.2443 31.2644Z"
          fill="#16A34A" stroke="#16A34A" stroke-width="0.5" stroke-linecap="round"
          stroke-linejoin="round"/>
    <path d="M26.678 12.9554C24.2637 11.5471 19.0038 6.74704 10.0073 9.67877L10.9401 16.1488L19.8644 16.9162L26.678 12.9554Z"
          fill="#16A34A" stroke="#16A34A" stroke-width="0.5" stroke-linejoin="round"/>
    <path d="M25.9307 6.66083C24.0451 7.48862 20.8624 14.086 19.5498 17.1231C19.5498 17.1231 22.0495 18.3632 23.775 18.7478C25.4669 19.1248 28.2013 19.0776 28.2013 19.0776C27.7124 18.0466 26.9775 15.6857 26.7355 12.3231C26.5532 9.79016 26.7457 7.30298 25.9307 6.66083Z"
          fill="#16A34A" stroke="#16A34A" stroke-width="0.5" stroke-linecap="round"
          stroke-linejoin="round"/>
    <path d="M11.502 2.32068C12.317 2.96283 12.0671 5.33504 12.2494 7.868C12.2494 11.3459 12.7474 14.1914 13.3703 14.1914L5.2627 17.8455L5.85461 15.2622C6.03437 14.3244 6.24265 13.2749 6.56045 12.1816C8.16109 8.04026 9.79134 2.95981 11.502 2.32068Z"
          fill="#16A34A"/>
    <path d="M5.2627 17.8455C5.7102 16.5627 5.89584 14.4681 6.56045 12.1816M5.2627 17.8455L6.56045 12.1816M5.2627 17.8455L13.3703 14.1914C12.7474 14.1914 12.2494 11.3459 12.2494 7.868C12.0671 5.33504 12.317 2.96283 11.502 2.32068C9.79134 2.95981 8.16109 8.04026 6.56045 12.1816"
          stroke="#16A34A" stroke-width="0.5" stroke-linecap="round"
          stroke-linejoin="round"/>
    <path d="M11.1274 24.3901C12.8549 23.6297 18.8422 25.698 22.2387 25.9811"
          stroke="#171717" stroke-width="2" stroke-linecap="round"
          stroke-linejoin="round"/>
    <path d="M11.9619 16.3689C13.5948 17.6099 13.9432 18.6985 15.2931 20.2879"
          stroke="#171717" stroke-width="2" stroke-linecap="round"
          stroke-linejoin="round"/>
    <path d="M15.5034 17.9256C15.5034 17.9256 14.2832 17.976 13.6384 18.4372C12.9937 18.8985 12.2015 20.2879 12.2015 20.2879"
          stroke="#171717" stroke-width="2" stroke-linecap="round"
          stroke-linejoin="round"/>
    <path d="M22.2388 21.7902C20.0615 21.6378 19.5826 19.3952 17.8843 17.9256"
          stroke="#171717" stroke-width="2" stroke-linecap="round"
          stroke-linejoin="round"/>
    <path d="M20.7363 18.938C20.7363 18.938 20.1183 19.3258 19.4736 19.7871C18.8288 20.2484 18.9368 21.039 18.9368 21.039"
          stroke="#171717" stroke-width="2" stroke-linecap="round"
          stroke-linejoin="round"/>
</svg>
